<?xml version="1.0" encoding="utf-8"?>
<!-- Generator: Adobe Illustrator 26.4.1, SVG Export Plug-In . SVG Version: 6.00 Build 0)  -->
<svg version="1.1" id="Capa_1" xmlns="http://www.w3.org/2000/svg" xmlns:xlink="http://www.w3.org/1999/xlink" x="0px" y="0px"
	 viewBox="0 0 575.4 575.4" style="enable-background:new 0 0 575.4 575.4;" xml:space="preserve">
<g>
	<g>
		<path d="M405.3,229.7c2.8,0,5.1-2.3,5.1-5.1v-13.7c0-2.8-2.3-5.1-5.1-5.1s-5.1,2.3-5.1,5.1v13.7
			C400.2,227.4,402.5,229.7,405.3,229.7z"/>
		<circle cx="466.5" cy="231.6" r="17.1"/>
		<path d="M287.2,312.7c-17.4,0-31.6,14.2-31.6,31.6c0,17.4,14.2,31.6,31.6,31.6c17.4,0,31.6-14.2,31.6-31.6
			C318.8,326.9,304.6,312.7,287.2,312.7z M279.1,356.2c0,0.2-0.5,0.5-0.7,0.6c-5,0.8-9.8,0.3-14.5-1.5c-0.4-0.2-0.8-0.4-1.1-0.6
			c-1.8-1.3-1.8-2.9,0-4.1c0.8-0.5,1.6-1,2.5-1.3c4.5-1.7,9.1-3.3,13.8-5c0,1.7,0,3.2,0,4.8c0,0.2-0.5,0.5-0.8,0.6
			c-2.5,0.9-5,1.8-7.5,2.7c-0.6,0.2-1.1,0.6-1.7,0.9c0,0.1,0,0.3,0,0.4c0.6,0.2,1.1,0.6,1.7,0.5c1.5-0.1,3.1-0.3,4.6-0.6
			c1.2-0.3,2.4-0.8,3.8-1.3C279.1,353.6,279.1,354.9,279.1,356.2z M289.3,329.7c-0.2,0.4-0.1,0.9-0.1,1.4c0,9.7,0,19.4,0,29.1
			c0,0.5,0,0.9,0,1.6c-2.8-0.9-5.5-1.7-8.1-2.6c-0.2-0.1-0.4-0.4-0.5-0.6c-0.1-0.3,0-0.7,0-1c0-11.5,0-22.9,0-34.4
			c0-0.4,0-0.8,0-1.3c0.8,0.2,1.5,0.2,2.1,0.4c3.7,1.1,7.4,2.2,11.1,3.3c1,0.3,1.9,0.8,2.8,1.3c2.9,1.6,4.6,4.1,5,7.4
			c0.3,2.3,0.4,4.6-0.3,6.8c-1.3,3.8-4.8,4.9-8.5,3.1c-0.3-0.1-0.5-0.8-0.5-1.2c0-3.9,0-7.8,0-11.6c0-0.8-0.2-1.6-0.6-2.3
			c-0.2-0.4-1-0.7-1.5-0.6C289.8,328.6,289.4,329.2,289.3,329.7z M311.5,348.9c2,1.3,2.1,2.9,0.1,4.2c-1.2,0.8-2.6,1.4-4,1.9
			c-5.4,2-10.7,3.9-16.1,5.8c-0.2,0.1-0.5,0.1-0.9,0.2c0-1.6,0-3,0-4.4c0-0.3,0.5-0.7,0.8-0.8c3.9-1.4,7.8-2.8,11.7-4.2
			c0.5-0.2,1-0.3,1.5-0.6c0.3-0.2,0.5-0.5,0.7-0.7c-0.3-0.2-0.5-0.5-0.8-0.6c-1.7-0.4-3.4-0.2-5.1,0.4c-2.5,0.9-5,1.8-7.5,2.7
			c-0.4,0.1-0.7,0.2-1.3,0.4c0-1.7,0-3.3,0-4.8c0-0.2,0.4-0.5,0.6-0.6c6.6-2.1,13.1-2,19.5,0.7C311,348.6,311.3,348.8,311.5,348.9z"
			/>
		<ellipse transform="matrix(0.1602 -0.9871 0.9871 0.1602 157.2632 728.2208)" cx="506.6" cy="271.7" rx="17.1" ry="17.1"/>
		<path d="M190.9,326.7c-15,0-27.3,12.2-27.3,27.3c0,15,12.2,27.3,27.3,27.3c15,0,27.3-12.2,27.3-27.3
			C218.1,338.9,205.9,326.7,190.9,326.7z"/>
		<path d="M378.5,326.7c-15,0-27.3,12.2-27.3,27.3c0,15,12.2,27.3,27.3,27.3c15,0,27.3-12.2,27.3-27.3
			C405.7,338.9,393.5,326.7,378.5,326.7z"/>
		<path d="M507.8,193.6c-1.3-2-3.8-3.7-7.2-5.1v-5.2c0,0-29.8-20.1-69.2-3.8c0,0-1.3,1.1-1.7,6.6c-2.5,0.6-4.6,1.2-6.4,1.9
			c-7.7,3.1-12.6,2.3-12.6,2.3H384c1,2.1,1.6,4.4,1.6,6.8v82.6c0,8.9-7.2,16.1-16.1,16.1H204.9c-8.9,0-16.1-7.2-16.1-16.1v-82.6
			c0-2.4,0.6-4.7,1.6-6.8h-25.7c0,0-4.9,0.8-12.6-2.3c-1.8-0.7-3.9-1.3-6.4-1.9c-0.5-5.5-1.7-6.6-1.7-6.6
			c-39.5-16.3-69.2,3.8-69.2,3.8v5.2c-3.3,1.4-5.9,3.1-7.2,5.1c0,0-24.8,37.2-32,62.7S-6.2,424.7,1,479.5
			C8.2,534.3,91,548,112.6,505c21.5-43.1,35.9-95.3,35.9-95.3s8.5-6.2,10.4-6.2c0,0,36.6,30.4,76-2.6h105.5c39.5,33,76,2.6,76,2.6
			c2,0,10.4,6.2,10.4,6.2s14.4,52.2,35.9,95.3c21.5,43.1,104.4,29.4,111.6-25.5c7.2-54.8-27.4-197.8-34.6-223.2
			C532.6,230.8,507.8,193.6,507.8,193.6z M157.8,210.9c0-6.2,5-11.2,11.2-11.2s11.2,5,11.2,11.2v13.7c0,6.2-5,11.2-11.2,11.2
			s-11.2-5-11.2-11.2V210.9z M88,233.6c0.7-9.4,13.3-9.4,18.7-9.4c5.4,0,18.1,0,18.7,9.4c0.3,4.4-1.2,19.3-3.2,23.5
			c-1.8,3.6-10.5,9.9-13.5,12c-0.2,0.1-0.3,0.3-0.5,0.4c-0.5,0.2-1,0.4-1.5,0.4c-0.1,0-0.2,0-0.2,0c-0.5,0-1-0.2-1.4-0.4
			c-0.1-0.1-0.3-0.2-0.4-0.3c-3-2.1-11.7-8.5-13.4-12C89.2,252.9,87.7,238,88,233.6z M66.5,292.4c-9.4-0.7-9.4-13.3-9.4-18.7
			c0-5.4,0-18.1,9.4-18.7c0.5,0,1,0,1.6,0c5.2,0,18,1.4,21.8,3.3c3.6,1.8,9.9,10.5,12.1,13.5c0.1,0.2,0.3,0.3,0.4,0.5
			c0.3,0.5,0.4,1.1,0.4,1.7c0,0.5-0.2,1-0.4,1.4c-0.1,0.1-0.2,0.3-0.3,0.4c-2.1,3-8.5,11.7-12,13.4c-3.8,1.9-16.6,3.3-21.8,3.3
			C67.5,292.4,67,292.4,66.5,292.4z M125.4,313.8c-0.7,9.4-13.3,9.4-18.7,9.4h0c-5.4,0-18,0-18.7-9.4c-0.3-4.4,1.2-19.3,3.3-23.5
			c1.8-3.6,10.5-9.9,13.4-12.1c0.2-0.2,0.4-0.3,0.6-0.4c0.1-0.1,0.3-0.1,0.4-0.2c0.8-0.3,1.7-0.2,2.5,0.2c0.2,0.1,0.4,0.3,0.6,0.4
			c3.1,2.2,11.6,8.5,13.4,12C124.2,294.5,125.7,309.4,125.4,313.8z M146.8,292.4c-0.5,0-1,0-1.6,0c-5.2,0-18-1.4-21.9-3.3
			c-3.6-1.8-9.9-10.5-12-13.4c-0.1-0.1-0.2-0.2-0.3-0.4c-0.4-0.6-0.5-1.3-0.4-2c0-0.4,0.2-0.7,0.3-1.1c0.1-0.2,0.2-0.4,0.4-0.6
			c2.1-3,8.5-11.6,12-13.4c3.8-1.9,16.6-3.3,21.8-3.3c0.6,0,1.2,0,1.6,0c9.4,0.7,9.4,13.3,9.4,18.7
			C156.2,279.1,156.2,291.7,146.8,292.4z M190.9,387.3c-18.4,0-33.4-15-33.4-33.4c0-18.4,15-33.4,33.4-33.4
			c18.4,0,33.4,15,33.4,33.4C224.3,372.3,209.3,387.3,190.9,387.3z M287.2,379c-19.1,0-34.7-15.5-34.7-34.7
			c0-19.1,15.5-34.7,34.7-34.7s34.7,15.5,34.7,34.7C321.8,363.4,306.3,379,287.2,379z M466.5,208.4c12.8,0,23.2,10.4,23.2,23.2
			s-10.4,23.2-23.2,23.2s-23.2-10.4-23.2-23.2C443.3,218.8,453.7,208.4,466.5,208.4z M394.1,210.9c0-6.2,5-11.2,11.2-11.2
			s11.2,5,11.2,11.2v13.7c0,6.2-5,11.2-11.2,11.2s-11.2-5-11.2-11.2V210.9z M378.5,387.3c-18.4,0-33.4-15-33.4-33.4
			c0-18.4,15-33.4,33.4-33.4c18.4,0,33.4,15,33.4,33.4C411.9,372.3,396.9,387.3,378.5,387.3z M426.4,294.9
			c-12.8,0-23.2-10.4-23.2-23.2c0-12.8,10.4-23.2,23.2-23.2s23.2,10.4,23.2,23.2C449.6,284.5,439.2,294.9,426.4,294.9z M466.5,335
			c-12.8,0-23.2-10.4-23.2-23.2s10.4-23.2,23.2-23.2s23.2,10.4,23.2,23.2S479.3,335,466.5,335z M506.6,294.9
			c-12.8,0-23.2-10.4-23.2-23.2c0-12.8,10.4-23.2,23.2-23.2s23.2,10.4,23.2,23.2C529.8,284.5,519.4,294.9,506.6,294.9z"/>
		<circle cx="426.4" cy="271.7" r="17.1"/>
		<circle cx="466.5" cy="311.8" r="17.1"/>
		<path d="M169,229.7c2.8,0,5.1-2.3,5.1-5.1v-13.7c0-2.8-2.3-5.1-5.1-5.1s-5.1,2.3-5.1,5.1v13.7C163.9,227.4,166.2,229.7,169,229.7z
			"/>
		<path d="M106.7,284.4c-4.6,3.4-9.3,7.3-10,8.7c-1.2,2.5-2.9,15.7-2.6,20.3c0.2,2.4,4.4,3.7,12.6,3.7l0,3.1v-3.1
			c8.2,0,12.4-1.2,12.6-3.7c0.3-4.5-1.4-17.8-2.6-20.3C116,291.9,111.7,288.1,106.7,284.4z"/>
		<path d="M87.3,263.7c-2.2-1.1-13.4-2.7-19.1-2.7c-0.4,0-0.9,0-1.2,0c-2.4,0.2-3.7,4.4-3.7,12.6c0,8.2,1.2,12.4,3.7,12.6
			c0.3,0,0.7,0,1.2,0c5.7,0,16.9-1.6,19.1-2.7c1.4-0.7,5.3-5.4,8.7-10C92.3,268.7,88.5,264.3,87.3,263.7z"/>
		<path d="M106.7,262.9c5-3.6,9.3-7.4,10-8.7c1.2-2.5,2.9-15.7,2.6-20.3c-0.2-2.4-4.4-3.7-12.6-3.7c-8.2,0-12.4,1.2-12.6,3.7
			c-0.3,4.5,1.4,17.8,2.6,20.3C97.4,255.6,102.1,259.6,106.7,262.9z"/>
		<path d="M146.4,261.1c-0.3,0-0.7,0-1.2,0c-5.7,0-16.9,1.6-19.1,2.7c-1.2,0.6-5,5-8.7,10c3.4,4.6,7.3,9.3,8.7,10
			c2.4,1.2,15.5,3,20.3,2.6c2.4-0.2,3.7-4.4,3.7-12.6C150.1,265.5,148.8,261.3,146.4,261.1z"/>
		<path d="M194.9,197.2v82.6c0,5.5,4.5,10,10,10h164.5c5.5,0,10-4.5,10-10v-82.6c0-2.6-1-5-2.7-6.8h-179
			C196,192.2,194.9,194.5,194.9,197.2z"/>
	</g>
</g>
</svg>
